{"title":"Insurgent.2015.BRRip.XViD.AC3-Shelby","uid":12153634,"size":1703651946,"categoryP":"video","categoryS":"movies","magnet":"?xt=urn:btih:613f7cb0357ff6f143c4dc956748646f164fd569&amp;dn=Insurgent.2015.BRRip.XViD.AC3-Shelby&amp;tr=udp%3A%2F%2Ftracker.openbittorrent.com%3A80&amp;tr=udp%3A%2F%2Fopen.demonii.com%3A1337&amp;tr=udp%3A%2F%2Ftracker.coppersurfer.tk%3A6969&amp;tr=udp%3A%2F%2Fexodus.desync.com%3A6969","seeders":2,"leechers":0,"uploader":null,"files":2,"time":1437706116,"description":"Insurgent 2015 BRRip XViD AC3-Shelby\n\nGeneral\nComplete name                            : Insurgent.2015.BRRip.XViD.AC3-Shelby.avi\nFormat                                   : AVI\nFormat/Info                              : Audio Video Interleave\nFile size                                : 1.59 GiB\nDuration                                 : 1h 59mn\nOverall bit rate                         : 1 909 Kbps\nWriting application                      : Lavf55.19.104\nWriting library                          : \n\nVideo\nID                                       : 0\nFormat                                   : MPEG-4 Visual\nFormat profile                           : Simple@L3\nFormat settings, BVOP                    : No\nFormat settings, QPel                    : No\nFormat settings, GMC                     : No warppoints\nFormat settings, Matrix                  : Default (H.263)\nCodec ID                                 : XVID\nCodec ID/Hint                            : XviD\nDuration                                 : 1h 59mn\nBit rate                                 : 1 450 Kbps\nWidth                                    : 720 pixels\nHeight                                   : 304 pixels\nDisplay aspect ratio                     : 2.40:1\nFrame rate                               : 23.976 fps\nColor space                              : YUV\nChroma subsampling                       : 4:2:0\nBit depth                                : 8 bits\nScan type                                : Progressive\nCompression mode                         : Lossy\nBits/(Pixel*Frame)                       : 0.276\nStream size                              : 1.21 GiB (76%)\nWriting library                          : XviD 64\n\nAudio\nID                                       : 1\nFormat                                   : AC-3\nFormat/Info                              : Audio Coding 3\nMode extension                           : CM (complete main)\nFormat settings, Endianness              : Big\nCodec ID                                 : 2000\nDuration                                 : 1h 59mn\nBit rate mode                            : Constant\nBit rate                                 : 448 Kbps\nChannel count                            : 2 channels\nChannel positions                        : Front: L R\nSampling rate                            : 48.0 KHz\nBit depth                                : 16 bits\nCompression mode                         : Lossy\nStream size                              : 381 MiB (23%)\nAlignment                                : Aligned on interleaves\nInterleave, duration                     : 32 ms (0.77 video frame)\nInterleave, preload duration             : 512 ms\n\n\n\nAdventure:Sci-Fi:Thriller\n\nBeatrice Prior must confront her inner demons and continue her fight against a powerful alliance which threatens to tear her society apart with the help from others on her side.\n\n\nDirector: Robert Schwentke \n\nWriters: Brian Duffield (screenplay), Akiva Goldsman (screenplay), 2 more credits Â» \n\nStars: Shailene Woodley, Ansel Elgort, Theo James\n &lt;a href=&quot;\nhttp://www.imdb.com/title/tt2908446/&quot; rel=&quot;nofollow&quot; target=&quot;_NEW&quot;&gt;\nhttp://www.imdb.com/title/tt2908446/&lt;/a&gt;","torrent":{"xt":"urn:btih:613f7cb0357ff6f143c4dc956748646f164fd569","amp;dn":"Insurgent.2015.BRRip.XViD.AC3-Shelby","amp;tr":["udp%3A%2F%2Ftracker.openbittorrent.com%3A80","udp%3A%2F%2Fopen.demonii.com%3A1337","udp%3A%2F%2Ftracker.coppersurfer.tk%3A6969","udp%3A%2F%2Fexodus.desync.com%3A6969"],"infoHash":"613f7cb0357ff6f143c4dc956748646f164fd569","infoHashBuffer":{"type":"Buffer","data":[97,63,124,176,53,127,246,241,67,196,220,149,103,72,100,111,22,79,213,105]},"announce":[],"urlList":[]}}